<svg xmlns="http://www.w3.org/2000/svg" width="66" height="66" viewBox="0 0 66 66">
    <g fill="#039" fill-rule="evenodd">
        <path d="M25.829 42.092l-9.084-9.08-2.995 2.995 12.078 12.078 25.745-25.84-2.998-2.995z"/>
        <path d="M33 0C14.816 0 0 14.816 0 33c0 18.184 14.816 33 33 33 18.184 0 33-14.884 33-33S51.116 0 33 0zm.211 62.21C17.131 62.21 3.933 49.078 3.933 33c0-16.078 13.198-29.278 29.278-29.278C49.29 3.722 62.49 16.852 62.49 33c0 16.149-13.2 29.21-29.278 29.21z"/>
    </g>
</svg>
