<svg xmlns="http://www.w3.org/2000/svg" width="50" height="50" viewBox="0 0 50 50">
    <g fill="none" fill-rule="evenodd">
        <rect width="50" height="50" fill="#EEE" rx="4.545"/>
        <path fill="#039" d="M15.209 26.35v.013c0 5.37 4.288 9.737 9.61 9.737 5.325 0 9.616-4.367 9.616-9.737 0-5.335-4.241-9.678-9.593-9.733v1.778c0 1.021-.906 1.048-1.408.593l-3.694-2.776s-.403-.339-.403-.713c0-.392.41-.713.41-.713l3.686-2.774c.502-.456 1.409-.429 1.409.593v1.853c6.422.054 11.711 5.366 11.711 11.89 0 6.56-5.24 11.897-11.743 11.897-6.502 0-11.742-5.336-11.742-11.896v-.013s0-1.214 1.083-1.214c1.019 0 1.058 1.216 1.058 1.216z"/>
    </g>
</svg>
